<svg width="709" height="447" viewBox="0 0 650 400" fill="none" xmlns="http://www.w3.org/2000/svg">
<g id="Group 1">
<g id="undraw_lighthouse_re_7r60 1" clip-path="url(#clip0_3_166)">
<path id="Vector" d="M333.726 93.0341H377.708V128.949H333.726V93.0341ZM376.727 94.0162H334.707V127.967H376.727V94.0162Z" fill="white"/>
<path id="Vector_2" d="M369.889 93.5121L368.969 128.08L369.949 128.107L370.869 93.5382L369.889 93.5121Z" fill="white"/>
<path id="Vector_3" d="M356.907 93.5121L355.987 128.08L356.967 128.107L357.887 93.5382L356.907 93.5121Z" fill="white"/>
<path id="Vector_4" d="M343.926 93.5121L343.006 128.08L343.986 128.107L344.906 93.5382L343.926 93.5121Z" fill="white"/>
<path id="Vector_5" d="M383.007 128.094H383.988V115.717L383.631 115.616C383.332 115.531 353.397 107.242 326.364 115.62L326.018 115.727V126.902H326.999V116.452C352.07 108.822 379.57 115.565 383.007 116.465V128.094V128.094Z" fill="white"/>
<path id="Vector_6" d="M326.635 121.468C358.423 112.967 383.09 121.371 383.336 121.457L383.66 120.53C383.412 120.444 358.476 111.936 326.382 120.519L326.635 121.468V121.468Z" fill="white"/>
<path id="Vector_7" d="M326.635 125.081C358.423 116.579 383.09 124.985 383.336 125.07L383.66 124.144C383.412 124.057 358.476 115.55 326.382 124.132L326.635 125.081V125.081Z" fill="white"/>
<path id="Vector_8" d="M332.999 166.235H376.812V133.726L382.897 128.458C364.191 122.995 345.254 122.845 326.103 127.646L332.999 133.88V166.235V166.235Z" fill="#48C6C5"/>
<path id="Vector_9" d="M392.954 163.339H393.935V146.772L393.578 146.671C393.175 146.557 352.839 135.389 316.417 146.674L316.071 146.781V161.731H317.052V147.506C351.278 137.042 388.895 146.445 392.954 147.519V163.339V163.339Z" fill="white"/>
<path id="Vector_10" d="M316.688 154.235C359.628 142.75 392.951 154.108 393.283 154.224L393.606 153.297C393.272 153.18 359.682 141.72 316.435 153.286L316.688 154.235Z" fill="white"/>
<path id="Vector_11" d="M316.688 159.11C359.63 147.625 392.951 158.983 393.283 159.099L393.606 158.172C393.272 158.055 359.682 146.595 316.435 158.161L316.688 159.11Z" fill="white"/>
<path id="Vector_12" d="M330.16 93.5252C330.16 101.153 343.405 93.7234 354.159 93.7234C364.913 93.7234 378.84 101.153 378.84 93.5252C378.84 85.8977 366.066 74.0277 355.311 74.0277C344.557 74.0277 330.16 85.8977 330.16 93.5252V93.5252Z" fill="#48C6C5"/>
<path id="Vector_13" d="M344.764 78.902H365.859V67.5285H344.764V78.902Z" fill="#48C6C5"/>
<path id="Vector_14" d="M309.876 373.802H395.067L382.086 186.951L399.124 164.204C370.099 159.554 340.699 158.301 310.687 162.579L322.857 183.701L309.876 373.802V373.802Z" fill="#ED5E93"/>
<path id="Vector_15" d="M424.868 374H425.849V346.1L425.492 345.999C425.31 345.947 406.932 340.801 380.657 338.248C356.403 335.892 320.257 335.324 285.796 346.002L285.451 346.109V372.924H286.431V346.834C320.633 336.314 356.479 336.886 380.563 339.226C404.741 341.575 422.19 346.122 424.868 346.846V374V374Z" fill="white"/>
<path id="Vector_16" d="M286.067 358.946C326.823 348.045 362.479 348.622 385.214 351.026C409.852 353.631 425.046 358.882 425.197 358.935L425.521 358.008C425.369 357.955 410.093 352.672 385.351 350.053C362.527 347.637 326.73 347.054 285.814 357.997L286.067 358.946V358.946Z" fill="white"/>
<path id="Vector_17" d="M286.067 367.785C326.823 356.885 362.479 357.461 385.214 359.865C409.852 362.47 425.046 367.721 425.197 367.774L425.521 366.847C425.369 366.794 410.093 361.511 385.351 358.892C362.527 356.476 326.73 355.893 285.814 366.836L286.067 367.785V367.785Z" fill="white"/>
<path id="Vector_18" d="M497 372.911H212V373.893H497V372.911Z" fill="#2F2E41"/>
<path id="Vector_19" d="M354 68H357V46H354V68Z" fill="#48C6C5"/>
</g>
<path id="Light" d="M355.382 45.6767L648 373.5L479 373.5L355.382 45.6767Z" fill="url(#paint0_linear_3_166)"/>
<path id="WatchTower" d="M73.325 300.9H90.325L106.025 347.1L103.725 346.1L117.425 312L124.125 331.9L102.925 377.4L73.325 300.9ZM110.225 300.9H124.625L142.725 345.6L140.125 345.2L153.625 300.9H169.225L140.825 377.2L110.225 300.9ZM189.084 375.2C185.018 375.2 181.318 374.4 177.984 372.8C174.718 371.133 172.118 368.6 170.184 365.2C168.251 361.8 167.284 357.467 167.284 352.2C167.284 347.267 168.284 343 170.284 339.4C172.284 335.8 174.918 333.033 178.184 331.1C181.451 329.1 184.918 328.1 188.584 328.1C192.918 328.1 196.184 328.833 198.384 330.3C200.651 331.7 202.518 333.267 203.984 335L203.384 336.7L204.684 330.3H217.684V374H203.684V364.5L204.784 367.5C204.651 367.5 204.251 367.9 203.584 368.7C202.918 369.433 201.918 370.333 200.584 371.4C199.318 372.4 197.718 373.267 195.784 374C193.918 374.8 191.684 375.2 189.084 375.2ZM193.084 363.8C195.618 363.8 197.751 363.267 199.484 362.2C201.218 361.067 202.618 359.4 203.684 357.2V346.5C202.884 344.367 201.484 342.667 199.484 341.4C197.551 340.133 195.251 339.5 192.584 339.5C190.584 339.5 188.718 340.033 186.984 341.1C185.318 342.1 183.984 343.5 182.984 345.3C181.984 347.1 181.484 349.167 181.484 351.5C181.484 353.833 182.018 355.933 183.084 357.8C184.151 359.667 185.551 361.133 187.284 362.2C189.084 363.267 191.018 363.8 193.084 363.8ZM236.21 311.1H250.21V330.1H260.81V341H250.21V374H236.21V341H229.41V330.1H236.21V311.1ZM308.566 370.1C306.632 371.633 304.199 372.867 301.266 373.8C298.399 374.733 295.566 375.2 292.766 375.2C287.766 375.2 283.399 374.3 279.666 372.5C275.999 370.633 273.132 368 271.066 364.6C269.066 361.133 268.066 356.967 268.066 352.1C268.066 347.233 269.166 343.1 271.366 339.7C273.566 336.233 276.432 333.6 279.966 331.8C283.566 330 287.332 329.1 291.266 329.1C295.199 329.1 298.599 329.633 301.466 330.7C304.399 331.767 306.899 333.167 308.966 334.9L302.166 343.9C301.232 343.167 299.932 342.433 298.266 341.7C296.666 340.9 294.766 340.5 292.566 340.5C290.632 340.5 288.866 341 287.266 342C285.666 343 284.399 344.367 283.466 346.1C282.532 347.833 282.066 349.833 282.066 352.1C282.066 354.233 282.566 356.2 283.566 358C284.566 359.8 285.932 361.233 287.666 362.3C289.466 363.3 291.566 363.8 293.966 363.8C295.499 363.8 296.899 363.6 298.166 363.2C299.499 362.733 300.632 362.1 301.566 361.3L308.566 370.1ZM319.317 374V295.1H333.017V339.1L332.917 337.4C334.451 334.667 336.617 332.467 339.417 330.8C342.217 329.067 345.651 328.2 349.717 328.2C353.851 328.2 357.284 329.433 360.017 331.9C362.817 334.3 364.251 337.433 364.317 341.3V374H350.317V346.5C350.251 344.567 349.717 343.033 348.717 341.9C347.784 340.7 346.184 340.1 343.917 340.1C340.651 340.1 338.051 341.633 336.117 344.7C334.251 347.7 333.317 351.533 333.317 356.2V374H319.317ZM375.992 300.4H425.592V314.4H407.692V374H393.192V314.4H375.992V300.4ZM423.827 351.6C423.827 347.133 424.861 343.133 426.927 339.6C429.061 336.067 432.027 333.3 435.827 331.3C439.627 329.233 443.994 328.2 448.927 328.2C453.927 328.2 458.261 329.233 461.927 331.3C465.594 333.3 468.394 336.067 470.327 339.6C472.327 343.133 473.327 347.133 473.327 351.6C473.327 356.067 472.327 360.1 470.327 363.7C468.394 367.233 465.594 370.033 461.927 372.1C458.261 374.167 453.861 375.2 448.727 375.2C443.927 375.2 439.627 374.267 435.827 372.4C432.094 370.533 429.161 367.833 427.027 364.3C424.894 360.767 423.827 356.533 423.827 351.6ZM437.927 351.7C437.927 353.967 438.394 356.033 439.327 357.9C440.261 359.7 441.527 361.133 443.127 362.2C444.727 363.267 446.527 363.8 448.527 363.8C451.794 363.8 454.394 362.667 456.327 360.4C458.261 358.067 459.227 355.167 459.227 351.7C459.227 348.233 458.261 345.367 456.327 343.1C454.394 340.767 451.794 339.6 448.527 339.6C446.527 339.6 444.727 340.133 443.127 341.2C441.527 342.267 440.261 343.7 439.327 345.5C438.394 347.3 437.927 349.367 437.927 351.7ZM514.091 330.3L523.691 352.8L521.091 353L529.491 330.3H543.091L523.391 376.6L509.391 347.6L496.591 376.6L476.691 330.3H490.291L500.891 354.6L496.091 353.9L504.491 335.3L502.191 330.3H514.091ZM571.286 375.2C565.953 375.2 561.419 374.2 557.686 372.2C554.019 370.2 551.219 367.433 549.286 363.9C547.353 360.367 546.386 356.3 546.386 351.7C546.386 347.3 547.519 343.333 549.786 339.8C552.053 336.267 555.086 333.467 558.886 331.4C562.686 329.267 566.919 328.2 571.586 328.2C577.853 328.2 582.986 330.033 586.986 333.7C591.053 337.3 593.686 342.533 594.886 349.4L560.886 360.2L557.786 352.6L582.386 344.3L579.486 345.6C578.953 343.867 577.986 342.367 576.586 341.1C575.253 339.767 573.219 339.1 570.486 339.1C567.353 339.1 564.853 340.167 562.986 342.3C561.119 344.433 560.186 347.3 560.186 350.9C560.186 354.967 561.286 358.067 563.486 360.2C565.686 362.267 568.386 363.3 571.586 363.3C573.119 363.3 574.586 363.033 575.986 362.5C577.453 361.967 578.886 361.267 580.286 360.4L586.486 370.8C584.153 372.133 581.619 373.2 578.886 374C576.219 374.8 573.686 375.2 571.286 375.2ZM617.659 330.3L618.959 342.3L618.659 340.5C619.926 337.9 621.659 335.7 623.859 333.9C626.059 332.033 628.226 330.6 630.359 329.6C632.559 328.6 634.226 328.1 635.359 328.1L634.659 342.1C631.393 341.7 628.593 342.233 626.259 343.7C623.926 345.167 622.126 347.1 620.859 349.5C619.593 351.9 618.959 354.367 618.959 356.9V374H605.059V330.3H617.659Z" fill="white"/>
</g>
<defs>
<linearGradient id="paint0_linear_3_166" x1="360.004" y1="43.0083" x2="589.875" y2="441.157" gradientUnits="userSpaceOnUse">
<stop stop-color="#FC5812" stop-opacity="0.63"/>
<stop offset="0.286458" stop-color="#F2AF4B" stop-opacity="0.713542"/>
<stop offset="0.541667" stop-color="#F1CE53" stop-opacity="0.458333"/>
<stop offset="0.715895" stop-color="#F0E369" stop-opacity="0.284105"/>
<stop offset="1" stop-color="#D9D9D9" stop-opacity="0"/>
</linearGradient>
<clipPath id="clip0_3_166">
<rect width="285" height="328" fill="white" transform="translate(212 46)"/>
</clipPath>
</defs>
</svg>
